<svg xmlns="http://www.w3.org/2000/svg" xmlns:xlink="http://www.w3.org/1999/xlink" width="150" zoomAndPan="magnify" viewBox="0 0 112.5 56.249996" height="75" preserveAspectRatio="xMidYMid meet" version="1.0"><defs><g/><clipPath id="9dd9bffd41"><path d="M 15 6.589844 L 45 6.589844 L 45 14 L 15 14 Z M 15 6.589844 " clip-rule="nonzero"/></clipPath><clipPath id="9b4e827470"><path d="M 12.210938 29 L 49.957031 29 L 49.957031 48.777344 L 12.210938 48.777344 Z M 12.210938 29 " clip-rule="nonzero"/></clipPath></defs><path fill="#2d2d2d" d="M 19.492188 16.214844 C 26.574219 16.214844 33.625 16.214844 40.671875 16.214844 C 40.671875 15.625 40.671875 15.050781 40.671875 14.464844 C 33.605469 14.464844 26.558594 14.464844 19.492188 14.464844 C 19.492188 15.054688 19.492188 15.625 19.492188 16.214844 " fill-opacity="1" fill-rule="nonzero"/><path fill="#2d2d2d" d="M 19.488281 26.734375 C 26.570312 26.734375 33.621094 26.734375 40.675781 26.734375 C 40.675781 26.140625 40.675781 25.566406 40.675781 24.992188 C 33.605469 24.992188 26.546875 24.992188 19.488281 24.992188 C 19.488281 25.582031 19.488281 26.144531 19.488281 26.734375 " fill-opacity="1" fill-rule="nonzero"/><path fill="#2d2d2d" d="M 34.433594 21.648438 C 35.015625 21.648438 35.496094 21.171875 35.496094 20.59375 C 35.492188 20.035156 35.019531 19.558594 34.460938 19.554688 C 33.867188 19.546875 33.402344 20 33.398438 20.585938 C 33.394531 21.183594 33.851562 21.648438 34.433594 21.648438 " fill-opacity="1" fill-rule="nonzero"/><path fill="#2d2d2d" d="M 40.46875 21.648438 C 41.054688 21.644531 41.511719 21.179688 41.507812 20.589844 C 41.503906 20.007812 41.03125 19.542969 40.445312 19.554688 C 39.878906 19.5625 39.417969 20.027344 39.414062 20.59375 C 39.410156 21.175781 39.886719 21.648438 40.46875 21.648438 " fill-opacity="1" fill-rule="nonzero"/><path fill="#2d2d2d" d="M 34.429688 11.113281 C 35.007812 11.113281 35.496094 10.632812 35.496094 10.0625 C 35.496094 9.507812 35.023438 9.027344 34.460938 9.015625 C 33.871094 9.003906 33.402344 9.457031 33.398438 10.046875 C 33.394531 10.640625 33.851562 11.113281 34.429688 11.113281 " fill-opacity="1" fill-rule="nonzero"/><path fill="#2d2d2d" d="M 40.460938 11.113281 C 41.046875 11.113281 41.507812 10.648438 41.507812 10.058594 C 41.507812 9.484375 41.058594 9.027344 40.484375 9.015625 C 39.902344 9.007812 39.421875 9.472656 39.414062 10.050781 C 39.40625 10.628906 39.882812 11.109375 40.460938 11.113281 " fill-opacity="1" fill-rule="nonzero"/><path fill="#2d2d2d" d="M 41.507812 31.132812 C 41.507812 31.535156 41.292969 31.878906 40.96875 32.054688 C 40.707031 31.675781 40.414062 31.3125 40.097656 30.96875 C 39.945312 30.804688 39.792969 30.652344 39.636719 30.5 C 39.832031 30.242188 40.144531 30.078125 40.484375 30.085938 C 41.054688 30.097656 41.507812 30.5625 41.507812 31.132812 " fill-opacity="1" fill-rule="nonzero"/><g clip-path="url(#9dd9bffd41)"><path fill="#2d2d2d" d="M 17.617188 9.925781 C 17.617188 9.632812 17.855469 9.398438 18.148438 9.398438 L 30.273438 9.398438 C 30.566406 9.398438 30.804688 9.632812 30.804688 9.925781 L 30.804688 10.097656 C 30.804688 10.390625 30.566406 10.628906 30.273438 10.628906 L 18.148438 10.628906 C 17.855469 10.628906 17.617188 10.390625 17.617188 10.097656 Z M 34.4375 8.085938 C 35.507812 8.085938 36.40625 8.980469 36.410156 10.050781 C 36.410156 11.140625 35.507812 12.046875 34.421875 12.039062 C 33.351562 12.035156 32.464844 11.136719 32.472656 10.054688 C 32.476562 8.976562 33.363281 8.085938 34.4375 8.085938 Z M 40.484375 8.085938 C 41.570312 8.105469 42.433594 8.988281 42.425781 10.070312 C 42.417969 11.160156 41.542969 12.039062 40.460938 12.039062 C 39.375 12.042969 38.496094 11.144531 38.5 10.035156 C 38.507812 8.964844 39.417969 8.066406 40.484375 8.085938 Z M 15.847656 13.496094 C 20.585938 13.496094 25.328125 13.496094 30.066406 13.496094 C 34.839844 13.496094 39.613281 13.5 44.386719 13.496094 C 44.847656 13.496094 44.96875 13.375 44.96875 12.925781 C 44.972656 11.023438 44.972656 9.117188 44.96875 7.214844 C 44.96875 6.746094 44.847656 6.625 44.371094 6.625 C 34.84375 6.625 25.320312 6.625 15.792969 6.625 C 15.316406 6.625 15.195312 6.746094 15.195312 7.21875 C 15.195312 9.097656 15.195312 10.980469 15.195312 12.859375 C 15.195312 13.398438 15.296875 13.496094 15.847656 13.496094 " fill-opacity="1" fill-rule="nonzero"/></g><path fill="#2d2d2d" d="M 17.617188 20.449219 C 17.617188 20.15625 17.855469 19.921875 18.148438 19.921875 L 30.273438 19.921875 C 30.566406 19.921875 30.804688 20.15625 30.804688 20.449219 L 30.804688 20.621094 C 30.804688 20.914062 30.566406 21.152344 30.273438 21.152344 L 18.148438 21.152344 C 17.855469 21.152344 17.617188 20.914062 17.617188 20.621094 Z M 34.425781 18.640625 C 35.53125 18.636719 36.414062 19.511719 36.410156 20.609375 C 36.402344 21.691406 35.527344 22.5625 34.4375 22.5625 C 33.347656 22.5625 32.476562 21.695312 32.46875 20.605469 C 32.464844 19.523438 33.339844 18.640625 34.425781 18.640625 Z M 40.464844 18.640625 C 41.566406 18.640625 42.429688 19.507812 42.425781 20.601562 C 42.417969 21.703125 41.558594 22.5625 40.460938 22.5625 C 39.367188 22.5625 38.5 21.695312 38.5 20.597656 C 38.503906 19.5 39.367188 18.636719 40.464844 18.640625 Z M 15.890625 24.050781 C 20.609375 24.050781 25.328125 24.050781 30.050781 24.050781 C 34.8125 24.050781 39.574219 24.050781 44.335938 24.050781 C 44.839844 24.050781 44.96875 23.917969 44.972656 23.414062 C 44.972656 21.535156 44.972656 19.652344 44.972656 17.773438 C 44.96875 17.289062 44.835938 17.152344 44.355469 17.152344 C 43.28125 17.152344 42.203125 17.15625 41.125 17.15625 C 32.6875 17.15625 24.25 17.152344 15.8125 17.152344 C 15.332031 17.152344 15.195312 17.285156 15.195312 17.769531 C 15.195312 19.628906 15.195312 21.488281 15.195312 23.347656 C 15.195312 23.941406 15.304688 24.050781 15.890625 24.050781 " fill-opacity="1" fill-rule="nonzero"/><path fill="#2d2d2d" d="M 44.308594 27.703125 L 15.832031 27.703125 C 15.296875 27.703125 15.195312 27.800781 15.195312 28.320312 L 15.195312 33.964844 C 15.195312 34.460938 15.308594 34.574219 15.808594 34.574219 L 15.886719 34.574219 C 16.480469 33.445312 17.339844 32.488281 18.375 31.777344 L 18.144531 31.777344 C 17.851562 31.777344 17.617188 31.535156 17.617188 31.242188 L 17.617188 31.074219 C 17.617188 30.78125 17.851562 30.546875 18.144531 30.546875 L 25.859375 30.546875 C 27.460938 28.960938 29.382812 28.042969 31.597656 27.800781 C 32.011719 27.753906 32.429688 27.730469 32.835938 27.730469 C 35.132812 27.730469 37.179688 28.457031 38.945312 29.890625 C 39.316406 29.4375 39.878906 29.148438 40.492188 29.160156 C 41.582031 29.183594 42.4375 30.066406 42.421875 31.15625 C 42.414062 31.875 42.027344 32.5 41.453125 32.839844 C 41.757812 33.386719 42.003906 33.960938 42.203125 34.574219 L 44.351562 34.574219 C 44.863281 34.574219 44.96875 34.460938 44.96875 33.9375 C 44.972656 32.078125 44.972656 30.21875 44.96875 28.359375 C 44.96875 27.792969 44.878906 27.703125 44.308594 27.703125 " fill-opacity="1" fill-rule="nonzero"/><g clip-path="url(#9b4e827470)"><path fill="#7001fd" d="M 49.101562 41.644531 C 48.457031 38.539062 45.359375 36.488281 42.195312 37.070312 C 41.621094 37.175781 41.347656 37 41.257812 36.425781 C 41.152344 35.78125 40.992188 35.164062 40.765625 34.574219 C 40.570312 34.046875 40.316406 33.539062 40.007812 33.058594 C 39.75 32.648438 39.449219 32.261719 39.105469 31.890625 C 38.910156 31.6875 38.714844 31.492188 38.511719 31.304688 C 37.621094 30.488281 36.636719 29.898438 35.570312 29.53125 C 35.109375 29.371094 34.636719 29.257812 34.144531 29.183594 C 33.382812 29.066406 32.578125 29.054688 31.742188 29.148438 C 30.335938 29.300781 29.078125 29.773438 27.96875 30.546875 C 27.464844 30.894531 26.992188 31.304688 26.554688 31.777344 C 26.511719 31.820312 26.46875 31.867188 26.425781 31.914062 C 26.09375 32.285156 25.753906 32.363281 25.300781 32.171875 C 24.8125 31.964844 24.300781 31.839844 23.777344 31.777344 C 23.566406 31.75 23.351562 31.730469 23.140625 31.722656 C 22.761719 31.710938 22.390625 31.726562 22.027344 31.777344 C 20.167969 32.019531 18.507812 33.050781 17.464844 34.574219 C 17.054688 35.175781 16.738281 35.851562 16.542969 36.585938 C 16.417969 37.0625 16.183594 37.359375 15.746094 37.574219 C 13.726562 38.566406 12.59375 40.195312 12.398438 42.441406 C 12.210938 44.589844 13.039062 46.316406 14.703125 47.640625 C 15.8125 48.527344 17.121094 48.875 18.53125 48.875 C 22.605469 48.878906 26.679688 48.878906 30.757812 48.878906 C 34.832031 48.878906 38.910156 48.878906 42.984375 48.875 C 43.523438 48.875 44.0625 48.84375 44.585938 48.722656 C 47.78125 48.003906 49.777344 44.875 49.101562 41.644531 " fill-opacity="1" fill-rule="nonzero"/></g><g fill="#ff00ff" fill-opacity="1"><g transform="translate(52.146536, 21.833877)"><g><path d="M 6.875 0.125 C 8.578125 0.125 10.671875 -0.25 11.671875 -0.625 C 11.84375 -0.71875 12 -0.90625 11.984375 -1.140625 C 11.921875 -2.34375 11.890625 -3.546875 11.8125 -4.75 C 11.78125 -5.265625 11.34375 -5.328125 11.109375 -5.03125 C 10 -3.90625 8.8125 -3.484375 7.375 -3.484375 C 5.734375 -3.484375 4.671875 -4.203125 4.671875 -5.734375 C 4.671875 -7.671875 5.578125 -8.6875 7.15625 -8.6875 C 8.375 -8.6875 9.21875 -8.25 9.953125 -7.515625 C 10.203125 -7.234375 10.5625 -7.3125 10.625 -7.703125 C 10.71875 -8.453125 10.859375 -9.9375 10.953125 -10.6875 C 10.984375 -10.921875 10.921875 -11.140625 10.703125 -11.265625 C 9.71875 -11.765625 8.515625 -12.046875 6.921875 -12.046875 C 2.9375 -12.046875 0.21875 -9.484375 0.21875 -5.484375 C 0.21875 -1.34375 2.953125 0.125 6.875 0.125 Z M 6.875 0.125 "/></g></g></g><g fill="#ff00ff" fill-opacity="1"><g transform="translate(64.428748, 21.833877)"><g><path d="M 2.59375 0.0625 C 3.140625 0.0625 4.046875 0.046875 4.609375 0 C 4.90625 -0.03125 5.15625 -0.25 5.09375 -0.546875 C 4.921875 -1.65625 4.734375 -2.890625 4.765625 -4.078125 C 4.765625 -4.578125 4.984375 -4.890625 5.28125 -4.796875 C 6.3125 -4.453125 7.078125 -2.546875 7.09375 -0.5 C 7.09375 -0.203125 7.3125 -0.03125 7.59375 0 C 8.078125 0.046875 9.140625 0.0625 9.609375 0.0625 C 10.09375 0.0625 11.0625 0.046875 11.609375 0 C 11.890625 -0.03125 12.109375 -0.25 12.09375 -0.546875 C 11.875 -3.625 10.15625 -5.21875 7.828125 -5.546875 C 7.46875 -5.59375 7.46875 -5.890625 7.8125 -5.9375 C 10.046875 -6.328125 11.484375 -7.625 11.484375 -9.296875 C 11.484375 -11.109375 9.765625 -12 6.65625 -12 C 4.390625 -12 2.484375 -12 1.234375 -11.921875 C 1 -11.90625 0.796875 -11.71875 0.78125 -11.484375 C 0.59375 -9.125 0.34375 -4.09375 0.34375 -0.46875 C 0.34375 -0.21875 0.5625 -0.03125 0.8125 0 C 1.265625 0.046875 2.078125 0.0625 2.59375 0.0625 Z M 5.34375 -6.390625 C 5.03125 -6.3125 4.8125 -6.375 4.796875 -6.71875 C 4.78125 -7.21875 4.796875 -7.703125 4.8125 -8.171875 C 4.8125 -8.4375 4.96875 -8.625 5.234375 -8.640625 C 5.390625 -8.65625 5.546875 -8.65625 5.734375 -8.65625 C 6.703125 -8.65625 7.234375 -8.375 7.234375 -7.765625 C 7.234375 -7.140625 6.5625 -6.640625 5.34375 -6.390625 Z M 5.34375 -6.390625 "/></g></g></g><g fill="#ff00ff" fill-opacity="1"><g transform="translate(76.761996, 21.833877)"><g><path d="M 6.234375 0.140625 C 9.96875 0.140625 12.15625 -1.328125 12.15625 -4.9375 C 12.171875 -7 11.875 -9.71875 11.640625 -11.484375 C 11.59375 -11.71875 11.40625 -11.875 11.171875 -11.90625 C 10.703125 -11.96875 9.90625 -11.984375 9.484375 -11.984375 C 9.046875 -11.984375 8.078125 -11.96875 7.609375 -11.90625 C 7.328125 -11.875 7.09375 -11.65625 7.140625 -11.359375 C 7.453125 -9.515625 7.703125 -7.21875 7.6875 -5.59375 C 7.671875 -4.40625 7.25 -3.46875 6.234375 -3.46875 C 5.203125 -3.46875 4.78125 -4.390625 4.765625 -5.59375 C 4.75 -7.234375 4.96875 -9.53125 5.296875 -11.359375 C 5.359375 -11.65625 5.109375 -11.875 4.828125 -11.90625 C 4.375 -11.96875 3.4375 -11.984375 3.015625 -11.984375 C 2.5625 -11.984375 1.734375 -11.96875 1.28125 -11.90625 C 1.03125 -11.875 0.84375 -11.71875 0.8125 -11.484375 C 0.5625 -9.734375 0.296875 -7 0.296875 -4.9375 C 0.296875 -1.328125 2.46875 0.140625 6.234375 0.140625 Z M 6.234375 0.140625 "/></g></g></g><g fill="#ff00ff" fill-opacity="1"><g transform="translate(89.197314, 21.833877)"><g><path d="M 5.921875 0.140625 C 9.96875 0.140625 12.25 -1.375 12.25 -5.3125 C 12.25 -9.578125 9.421875 -11.984375 5.359375 -11.984375 C 4.03125 -11.984375 2.484375 -11.984375 1.265625 -11.90625 C 0.984375 -11.890625 0.796875 -11.703125 0.78125 -11.46875 C 0.578125 -8.9375 0.34375 -4.578125 0.34375 -0.53125 C 0.34375 -0.234375 0.546875 -0.015625 0.796875 0 C 1.71875 0.0625 4.390625 0.140625 5.921875 0.140625 Z M 5.375 -3.59375 C 5 -3.59375 4.78125 -3.84375 4.765625 -4.328125 C 4.75 -5.40625 4.734375 -6.84375 4.765625 -7.921875 C 4.78125 -8.296875 4.984375 -8.546875 5.3125 -8.5625 L 5.75 -8.5625 C 7.078125 -8.5625 7.921875 -7.421875 7.921875 -5.515625 C 7.921875 -4.15625 7.046875 -3.578125 5.921875 -3.578125 C 5.734375 -3.578125 5.546875 -3.578125 5.375 -3.59375 Z M 5.375 -3.59375 "/></g></g></g><g fill="#00ffff" fill-opacity="1"><g transform="translate(51.295523, 21.833877)"><g><path d="M 6.875 0.125 C 8.578125 0.125 10.671875 -0.25 11.671875 -0.625 C 11.84375 -0.71875 12 -0.90625 11.984375 -1.140625 C 11.921875 -2.34375 11.890625 -3.546875 11.8125 -4.75 C 11.78125 -5.265625 11.34375 -5.328125 11.109375 -5.03125 C 10 -3.90625 8.8125 -3.484375 7.375 -3.484375 C 5.734375 -3.484375 4.671875 -4.203125 4.671875 -5.734375 C 4.671875 -7.671875 5.578125 -8.6875 7.15625 -8.6875 C 8.375 -8.6875 9.21875 -8.25 9.953125 -7.515625 C 10.203125 -7.234375 10.5625 -7.3125 10.625 -7.703125 C 10.71875 -8.453125 10.859375 -9.9375 10.953125 -10.6875 C 10.984375 -10.921875 10.921875 -11.140625 10.703125 -11.265625 C 9.71875 -11.765625 8.515625 -12.046875 6.921875 -12.046875 C 2.9375 -12.046875 0.21875 -9.484375 0.21875 -5.484375 C 0.21875 -1.34375 2.953125 0.125 6.875 0.125 Z M 6.875 0.125 "/></g></g></g><g fill="#00ffff" fill-opacity="1"><g transform="translate(63.577735, 21.833877)"><g><path d="M 2.59375 0.0625 C 3.140625 0.0625 4.046875 0.046875 4.609375 0 C 4.90625 -0.03125 5.15625 -0.25 5.09375 -0.546875 C 4.921875 -1.65625 4.734375 -2.890625 4.765625 -4.078125 C 4.765625 -4.578125 4.984375 -4.890625 5.28125 -4.796875 C 6.3125 -4.453125 7.078125 -2.546875 7.09375 -0.5 C 7.09375 -0.203125 7.3125 -0.03125 7.59375 0 C 8.078125 0.046875 9.140625 0.0625 9.609375 0.0625 C 10.09375 0.0625 11.0625 0.046875 11.609375 0 C 11.890625 -0.03125 12.109375 -0.25 12.09375 -0.546875 C 11.875 -3.625 10.15625 -5.21875 7.828125 -5.546875 C 7.46875 -5.59375 7.46875 -5.890625 7.8125 -5.9375 C 10.046875 -6.328125 11.484375 -7.625 11.484375 -9.296875 C 11.484375 -11.109375 9.765625 -12 6.65625 -12 C 4.390625 -12 2.484375 -12 1.234375 -11.921875 C 1 -11.90625 0.796875 -11.71875 0.78125 -11.484375 C 0.59375 -9.125 0.34375 -4.09375 0.34375 -0.46875 C 0.34375 -0.21875 0.5625 -0.03125 0.8125 0 C 1.265625 0.046875 2.078125 0.0625 2.59375 0.0625 Z M 5.34375 -6.390625 C 5.03125 -6.3125 4.8125 -6.375 4.796875 -6.71875 C 4.78125 -7.21875 4.796875 -7.703125 4.8125 -8.171875 C 4.8125 -8.4375 4.96875 -8.625 5.234375 -8.640625 C 5.390625 -8.65625 5.546875 -8.65625 5.734375 -8.65625 C 6.703125 -8.65625 7.234375 -8.375 7.234375 -7.765625 C 7.234375 -7.140625 6.5625 -6.640625 5.34375 -6.390625 Z M 5.34375 -6.390625 "/></g></g></g><g fill="#00ffff" fill-opacity="1"><g transform="translate(75.910982, 21.833877)"><g><path d="M 6.234375 0.140625 C 9.96875 0.140625 12.15625 -1.328125 12.15625 -4.9375 C 12.171875 -7 11.875 -9.71875 11.640625 -11.484375 C 11.59375 -11.71875 11.40625 -11.875 11.171875 -11.90625 C 10.703125 -11.96875 9.90625 -11.984375 9.484375 -11.984375 C 9.046875 -11.984375 8.078125 -11.96875 7.609375 -11.90625 C 7.328125 -11.875 7.09375 -11.65625 7.140625 -11.359375 C 7.453125 -9.515625 7.703125 -7.21875 7.6875 -5.59375 C 7.671875 -4.40625 7.25 -3.46875 6.234375 -3.46875 C 5.203125 -3.46875 4.78125 -4.390625 4.765625 -5.59375 C 4.75 -7.234375 4.96875 -9.53125 5.296875 -11.359375 C 5.359375 -11.65625 5.109375 -11.875 4.828125 -11.90625 C 4.375 -11.96875 3.4375 -11.984375 3.015625 -11.984375 C 2.5625 -11.984375 1.734375 -11.96875 1.28125 -11.90625 C 1.03125 -11.875 0.84375 -11.71875 0.8125 -11.484375 C 0.5625 -9.734375 0.296875 -7 0.296875 -4.9375 C 0.296875 -1.328125 2.46875 0.140625 6.234375 0.140625 Z M 6.234375 0.140625 "/></g></g></g><g fill="#00ffff" fill-opacity="1"><g transform="translate(88.3463, 21.833877)"><g><path d="M 5.921875 0.140625 C 9.96875 0.140625 12.25 -1.375 12.25 -5.3125 C 12.25 -9.578125 9.421875 -11.984375 5.359375 -11.984375 C 4.03125 -11.984375 2.484375 -11.984375 1.265625 -11.90625 C 0.984375 -11.890625 0.796875 -11.703125 0.78125 -11.46875 C 0.578125 -8.9375 0.34375 -4.578125 0.34375 -0.53125 C 0.34375 -0.234375 0.546875 -0.015625 0.796875 0 C 1.71875 0.0625 4.390625 0.140625 5.921875 0.140625 Z M 5.375 -3.59375 C 5 -3.59375 4.78125 -3.84375 4.765625 -4.328125 C 4.75 -5.40625 4.734375 -6.84375 4.765625 -7.921875 C 4.78125 -8.296875 4.984375 -8.546875 5.3125 -8.5625 L 5.75 -8.5625 C 7.078125 -8.5625 7.921875 -7.421875 7.921875 -5.515625 C 7.921875 -4.15625 7.046875 -3.578125 5.921875 -3.578125 C 5.734375 -3.578125 5.546875 -3.578125 5.375 -3.59375 Z M 5.375 -3.59375 "/></g></g></g><g fill="#000000" fill-opacity="1"><g transform="translate(51.721031, 21.833877)"><g><path d="M 6.875 0.125 C 8.578125 0.125 10.671875 -0.25 11.671875 -0.625 C 11.84375 -0.71875 12 -0.90625 11.984375 -1.140625 C 11.921875 -2.34375 11.890625 -3.546875 11.8125 -4.75 C 11.78125 -5.265625 11.34375 -5.328125 11.109375 -5.03125 C 10 -3.90625 8.8125 -3.484375 7.375 -3.484375 C 5.734375 -3.484375 4.671875 -4.203125 4.671875 -5.734375 C 4.671875 -7.671875 5.578125 -8.6875 7.15625 -8.6875 C 8.375 -8.6875 9.21875 -8.25 9.953125 -7.515625 C 10.203125 -7.234375 10.5625 -7.3125 10.625 -7.703125 C 10.71875 -8.453125 10.859375 -9.9375 10.953125 -10.6875 C 10.984375 -10.921875 10.921875 -11.140625 10.703125 -11.265625 C 9.71875 -11.765625 8.515625 -12.046875 6.921875 -12.046875 C 2.9375 -12.046875 0.21875 -9.484375 0.21875 -5.484375 C 0.21875 -1.34375 2.953125 0.125 6.875 0.125 Z M 6.875 0.125 "/></g></g></g><g fill="#000000" fill-opacity="1"><g transform="translate(64.003243, 21.833877)"><g><path d="M 2.59375 0.0625 C 3.140625 0.0625 4.046875 0.046875 4.609375 0 C 4.90625 -0.03125 5.15625 -0.25 5.09375 -0.546875 C 4.921875 -1.65625 4.734375 -2.890625 4.765625 -4.078125 C 4.765625 -4.578125 4.984375 -4.890625 5.28125 -4.796875 C 6.3125 -4.453125 7.078125 -2.546875 7.09375 -0.5 C 7.09375 -0.203125 7.3125 -0.03125 7.59375 0 C 8.078125 0.046875 9.140625 0.0625 9.609375 0.0625 C 10.09375 0.0625 11.0625 0.046875 11.609375 0 C 11.890625 -0.03125 12.109375 -0.25 12.09375 -0.546875 C 11.875 -3.625 10.15625 -5.21875 7.828125 -5.546875 C 7.46875 -5.59375 7.46875 -5.890625 7.8125 -5.9375 C 10.046875 -6.328125 11.484375 -7.625 11.484375 -9.296875 C 11.484375 -11.109375 9.765625 -12 6.65625 -12 C 4.390625 -12 2.484375 -12 1.234375 -11.921875 C 1 -11.90625 0.796875 -11.71875 0.78125 -11.484375 C 0.59375 -9.125 0.34375 -4.09375 0.34375 -0.46875 C 0.34375 -0.21875 0.5625 -0.03125 0.8125 0 C 1.265625 0.046875 2.078125 0.0625 2.59375 0.0625 Z M 5.34375 -6.390625 C 5.03125 -6.3125 4.8125 -6.375 4.796875 -6.71875 C 4.78125 -7.21875 4.796875 -7.703125 4.8125 -8.171875 C 4.8125 -8.4375 4.96875 -8.625 5.234375 -8.640625 C 5.390625 -8.65625 5.546875 -8.65625 5.734375 -8.65625 C 6.703125 -8.65625 7.234375 -8.375 7.234375 -7.765625 C 7.234375 -7.140625 6.5625 -6.640625 5.34375 -6.390625 Z M 5.34375 -6.390625 "/></g></g></g><g fill="#000000" fill-opacity="1"><g transform="translate(76.33649, 21.833877)"><g><path d="M 6.234375 0.140625 C 9.96875 0.140625 12.15625 -1.328125 12.15625 -4.9375 C 12.171875 -7 11.875 -9.71875 11.640625 -11.484375 C 11.59375 -11.71875 11.40625 -11.875 11.171875 -11.90625 C 10.703125 -11.96875 9.90625 -11.984375 9.484375 -11.984375 C 9.046875 -11.984375 8.078125 -11.96875 7.609375 -11.90625 C 7.328125 -11.875 7.09375 -11.65625 7.140625 -11.359375 C 7.453125 -9.515625 7.703125 -7.21875 7.6875 -5.59375 C 7.671875 -4.40625 7.25 -3.46875 6.234375 -3.46875 C 5.203125 -3.46875 4.78125 -4.390625 4.765625 -5.59375 C 4.75 -7.234375 4.96875 -9.53125 5.296875 -11.359375 C 5.359375 -11.65625 5.109375 -11.875 4.828125 -11.90625 C 4.375 -11.96875 3.4375 -11.984375 3.015625 -11.984375 C 2.5625 -11.984375 1.734375 -11.96875 1.28125 -11.90625 C 1.03125 -11.875 0.84375 -11.71875 0.8125 -11.484375 C 0.5625 -9.734375 0.296875 -7 0.296875 -4.9375 C 0.296875 -1.328125 2.46875 0.140625 6.234375 0.140625 Z M 6.234375 0.140625 "/></g></g></g><g fill="#000000" fill-opacity="1"><g transform="translate(88.771808, 21.833877)"><g><path d="M 5.921875 0.140625 C 9.96875 0.140625 12.25 -1.375 12.25 -5.3125 C 12.25 -9.578125 9.421875 -11.984375 5.359375 -11.984375 C 4.03125 -11.984375 2.484375 -11.984375 1.265625 -11.90625 C 0.984375 -11.890625 0.796875 -11.703125 0.78125 -11.46875 C 0.578125 -8.9375 0.34375 -4.578125 0.34375 -0.53125 C 0.34375 -0.234375 0.546875 -0.015625 0.796875 0 C 1.71875 0.0625 4.390625 0.140625 5.921875 0.140625 Z M 5.375 -3.59375 C 5 -3.59375 4.78125 -3.84375 4.765625 -4.328125 C 4.75 -5.40625 4.734375 -6.84375 4.765625 -7.921875 C 4.78125 -8.296875 4.984375 -8.546875 5.3125 -8.5625 L 5.75 -8.5625 C 7.078125 -8.5625 7.921875 -7.421875 7.921875 -5.515625 C 7.921875 -4.15625 7.046875 -3.578125 5.921875 -3.578125 C 5.734375 -3.578125 5.546875 -3.578125 5.375 -3.59375 Z M 5.375 -3.59375 "/></g></g></g><g fill="#ff00ff" fill-opacity="1"><g transform="translate(51.834293, 46.258217)"><g><path d="M 4.71875 0.140625 C 8.609375 0.140625 11.359375 -1.015625 11.34375 -4.796875 C 11.34375 -7.28125 11.078125 -9.828125 10.875 -11.46875 C 10.84375 -11.71875 10.65625 -11.90625 10.375 -11.90625 C 9.578125 -11.96875 7.234375 -11.984375 6.140625 -11.984375 C 5.046875 -11.984375 3.125 -11.984375 2.0625 -11.90625 C 1.78125 -11.890625 1.59375 -11.703125 1.5625 -11.4375 C 1.515625 -10.46875 1.46875 -9.171875 1.453125 -8.203125 C 1.453125 -7.78125 1.75 -7.59375 2.109375 -7.828125 C 3 -8.328125 4.421875 -8.578125 5.703125 -8.578125 C 6.484375 -8.578125 6.859375 -8.234375 6.890625 -7.671875 C 6.90625 -7.046875 6.90625 -6.296875 6.890625 -5.671875 C 6.84375 -4.171875 5.734375 -3.4375 4.203125 -3.4375 C 2.984375 -3.4375 1.953125 -3.953125 1.09375 -4.796875 C 0.796875 -5.125 0.390625 -5 0.359375 -4.46875 C 0.3125 -3.40625 0.265625 -2.0625 0.25 -1 C 0.25 -0.75 0.40625 -0.546875 0.609375 -0.46875 C 1.671875 -0.125 3.28125 0.140625 4.71875 0.140625 Z M 4.71875 0.140625 "/></g></g></g><g fill="#ff00ff" fill-opacity="1"><g transform="translate(63.504104, 46.258217)"><g><path d="M 2.359375 0.0625 C 2.890625 0.0625 3.890625 0.046875 4.40625 0 C 4.640625 -0.03125 4.859375 -0.21875 4.84375 -0.5 C 4.796875 -1.078125 4.8125 -1.75 4.890625 -2.234375 C 4.984375 -2.828125 5.53125 -3.078125 6.125 -3.09375 L 6.765625 -3.09375 C 7.390625 -3.078125 7.921875 -2.859375 8.03125 -2.234375 C 8.078125 -1.734375 8.09375 -1.0625 8.0625 -0.515625 C 8.03125 -0.21875 8.25 -0.03125 8.484375 0 C 8.984375 0.046875 9.9375 0.0625 10.375 0.0625 C 10.84375 0.0625 11.84375 0.046875 12.34375 0 C 12.625 -0.015625 12.8125 -0.234375 12.75 -0.53125 C 12.046875 -4.625 10.53125 -9.109375 9.34375 -11.625 C 9.28125 -11.796875 9.125 -11.875 8.9375 -11.90625 C 8.265625 -11.984375 7.0625 -11.984375 6.4375 -11.984375 C 5.78125 -11.984375 4.609375 -11.984375 3.984375 -11.90625 C 3.796875 -11.875 3.640625 -11.796875 3.578125 -11.625 C 2.375 -9.109375 0.84375 -4.625 0.15625 -0.546875 C 0.078125 -0.25 0.265625 -0.03125 0.578125 0 C 1.03125 0.03125 1.890625 0.0625 2.359375 0.0625 Z M 6.296875 -4.75 C 5.765625 -4.765625 5.5 -5.015625 5.609375 -5.4375 C 5.734375 -6.28125 5.953125 -7.328125 6.15625 -8.1875 C 6.328125 -8.734375 6.5625 -8.734375 6.71875 -8.1875 C 6.9375 -7.328125 7.1875 -6.28125 7.28125 -5.4375 C 7.40625 -5.015625 7.140625 -4.765625 6.625 -4.75 Z M 6.296875 -4.75 "/></g></g></g><g fill="#ff00ff" fill-opacity="1"><g transform="translate(76.398729, 46.258217)"><g><path d="M 6.3125 0.0625 C 6.9375 0.0625 8.171875 0.0625 8.828125 0 C 9.03125 -0.03125 9.203125 -0.15625 9.3125 -0.34375 C 10.484375 -2.859375 11.890625 -7.265625 12.484375 -11.390625 C 12.546875 -11.671875 12.375 -11.890625 12.078125 -11.90625 C 11.609375 -11.96875 10.640625 -11.984375 10.1875 -11.984375 C 9.765625 -11.984375 8.6875 -11.9375 8.21875 -11.90625 C 7.96875 -11.890625 7.78125 -11.703125 7.78125 -11.46875 C 7.671875 -8.84375 7.203125 -5.515625 6.625 -3.953125 C 6.4375 -3.453125 6.234375 -3.453125 6.0625 -3.953125 C 5.484375 -5.53125 5.015625 -8.84375 4.90625 -11.453125 C 4.90625 -11.71875 4.703125 -11.890625 4.453125 -11.90625 C 3.953125 -11.9375 2.859375 -11.984375 2.359375 -11.984375 C 1.890625 -11.984375 1.078125 -11.9375 0.609375 -11.90625 C 0.3125 -11.875 0.125 -11.65625 0.171875 -11.390625 C 0.78125 -7.25 2.21875 -2.859375 3.375 -0.34375 C 3.46875 -0.140625 3.625 -0.015625 3.84375 0 C 4.484375 0.0625 5.703125 0.0625 6.3125 0.0625 Z M 6.3125 0.0625 "/></g></g></g><g fill="#ff00ff" fill-opacity="1"><g transform="translate(89.072205, 46.258217)"><g><path d="M 2.359375 0.0625 C 2.890625 0.0625 3.890625 0.046875 4.40625 0 C 4.640625 -0.03125 4.859375 -0.21875 4.84375 -0.5 C 4.796875 -1.078125 4.8125 -1.75 4.890625 -2.234375 C 4.984375 -2.828125 5.53125 -3.078125 6.125 -3.09375 L 6.765625 -3.09375 C 7.390625 -3.078125 7.921875 -2.859375 8.03125 -2.234375 C 8.078125 -1.734375 8.09375 -1.0625 8.0625 -0.515625 C 8.03125 -0.21875 8.25 -0.03125 8.484375 0 C 8.984375 0.046875 9.9375 0.0625 10.375 0.0625 C 10.84375 0.0625 11.84375 0.046875 12.34375 0 C 12.625 -0.015625 12.8125 -0.234375 12.75 -0.53125 C 12.046875 -4.625 10.53125 -9.109375 9.34375 -11.625 C 9.28125 -11.796875 9.125 -11.875 8.9375 -11.90625 C 8.265625 -11.984375 7.0625 -11.984375 6.4375 -11.984375 C 5.78125 -11.984375 4.609375 -11.984375 3.984375 -11.90625 C 3.796875 -11.875 3.640625 -11.796875 3.578125 -11.625 C 2.375 -9.109375 0.84375 -4.625 0.15625 -0.546875 C 0.078125 -0.25 0.265625 -0.03125 0.578125 0 C 1.03125 0.03125 1.890625 0.0625 2.359375 0.0625 Z M 6.296875 -4.75 C 5.765625 -4.765625 5.5 -5.015625 5.609375 -5.4375 C 5.734375 -6.28125 5.953125 -7.328125 6.15625 -8.1875 C 6.328125 -8.734375 6.5625 -8.734375 6.71875 -8.1875 C 6.9375 -7.328125 7.1875 -6.28125 7.28125 -5.4375 C 7.40625 -5.015625 7.140625 -4.765625 6.625 -4.75 Z M 6.296875 -4.75 "/></g></g></g><g fill="#00ffff" fill-opacity="1"><g transform="translate(50.98328, 46.258217)"><g><path d="M 4.71875 0.140625 C 8.609375 0.140625 11.359375 -1.015625 11.34375 -4.796875 C 11.34375 -7.28125 11.078125 -9.828125 10.875 -11.46875 C 10.84375 -11.71875 10.65625 -11.90625 10.375 -11.90625 C 9.578125 -11.96875 7.234375 -11.984375 6.140625 -11.984375 C 5.046875 -11.984375 3.125 -11.984375 2.0625 -11.90625 C 1.78125 -11.890625 1.59375 -11.703125 1.5625 -11.4375 C 1.515625 -10.46875 1.46875 -9.171875 1.453125 -8.203125 C 1.453125 -7.78125 1.75 -7.59375 2.109375 -7.828125 C 3 -8.328125 4.421875 -8.578125 5.703125 -8.578125 C 6.484375 -8.578125 6.859375 -8.234375 6.890625 -7.671875 C 6.90625 -7.046875 6.90625 -6.296875 6.890625 -5.671875 C 6.84375 -4.171875 5.734375 -3.4375 4.203125 -3.4375 C 2.984375 -3.4375 1.953125 -3.953125 1.09375 -4.796875 C 0.796875 -5.125 0.390625 -5 0.359375 -4.46875 C 0.3125 -3.40625 0.265625 -2.0625 0.25 -1 C 0.25 -0.75 0.40625 -0.546875 0.609375 -0.46875 C 1.671875 -0.125 3.28125 0.140625 4.71875 0.140625 Z M 4.71875 0.140625 "/></g></g></g><g fill="#00ffff" fill-opacity="1"><g transform="translate(62.65309, 46.258217)"><g><path d="M 2.359375 0.0625 C 2.890625 0.0625 3.890625 0.046875 4.40625 0 C 4.640625 -0.03125 4.859375 -0.21875 4.84375 -0.5 C 4.796875 -1.078125 4.8125 -1.75 4.890625 -2.234375 C 4.984375 -2.828125 5.53125 -3.078125 6.125 -3.09375 L 6.765625 -3.09375 C 7.390625 -3.078125 7.921875 -2.859375 8.03125 -2.234375 C 8.078125 -1.734375 8.09375 -1.0625 8.0625 -0.515625 C 8.03125 -0.21875 8.25 -0.03125 8.484375 0 C 8.984375 0.046875 9.9375 0.0625 10.375 0.0625 C 10.84375 0.0625 11.84375 0.046875 12.34375 0 C 12.625 -0.015625 12.8125 -0.234375 12.75 -0.53125 C 12.046875 -4.625 10.53125 -9.109375 9.34375 -11.625 C 9.28125 -11.796875 9.125 -11.875 8.9375 -11.90625 C 8.265625 -11.984375 7.0625 -11.984375 6.4375 -11.984375 C 5.78125 -11.984375 4.609375 -11.984375 3.984375 -11.90625 C 3.796875 -11.875 3.640625 -11.796875 3.578125 -11.625 C 2.375 -9.109375 0.84375 -4.625 0.15625 -0.546875 C 0.078125 -0.25 0.265625 -0.03125 0.578125 0 C 1.03125 0.03125 1.890625 0.0625 2.359375 0.0625 Z M 6.296875 -4.75 C 5.765625 -4.765625 5.5 -5.015625 5.609375 -5.4375 C 5.734375 -6.28125 5.953125 -7.328125 6.15625 -8.1875 C 6.328125 -8.734375 6.5625 -8.734375 6.71875 -8.1875 C 6.9375 -7.328125 7.1875 -6.28125 7.28125 -5.4375 C 7.40625 -5.015625 7.140625 -4.765625 6.625 -4.75 Z M 6.296875 -4.75 "/></g></g></g><g fill="#00ffff" fill-opacity="1"><g transform="translate(75.547715, 46.258217)"><g><path d="M 6.3125 0.0625 C 6.9375 0.0625 8.171875 0.0625 8.828125 0 C 9.03125 -0.03125 9.203125 -0.15625 9.3125 -0.34375 C 10.484375 -2.859375 11.890625 -7.265625 12.484375 -11.390625 C 12.546875 -11.671875 12.375 -11.890625 12.078125 -11.90625 C 11.609375 -11.96875 10.640625 -11.984375 10.1875 -11.984375 C 9.765625 -11.984375 8.6875 -11.9375 8.21875 -11.90625 C 7.96875 -11.890625 7.78125 -11.703125 7.78125 -11.46875 C 7.671875 -8.84375 7.203125 -5.515625 6.625 -3.953125 C 6.4375 -3.453125 6.234375 -3.453125 6.0625 -3.953125 C 5.484375 -5.53125 5.015625 -8.84375 4.90625 -11.453125 C 4.90625 -11.71875 4.703125 -11.890625 4.453125 -11.90625 C 3.953125 -11.9375 2.859375 -11.984375 2.359375 -11.984375 C 1.890625 -11.984375 1.078125 -11.9375 0.609375 -11.90625 C 0.3125 -11.875 0.125 -11.65625 0.171875 -11.390625 C 0.78125 -7.25 2.21875 -2.859375 3.375 -0.34375 C 3.46875 -0.140625 3.625 -0.015625 3.84375 0 C 4.484375 0.0625 5.703125 0.0625 6.3125 0.0625 Z M 6.3125 0.0625 "/></g></g></g><g fill="#00ffff" fill-opacity="1"><g transform="translate(88.221191, 46.258217)"><g><path d="M 2.359375 0.0625 C 2.890625 0.0625 3.890625 0.046875 4.40625 0 C 4.640625 -0.03125 4.859375 -0.21875 4.84375 -0.5 C 4.796875 -1.078125 4.8125 -1.75 4.890625 -2.234375 C 4.984375 -2.828125 5.53125 -3.078125 6.125 -3.09375 L 6.765625 -3.09375 C 7.390625 -3.078125 7.921875 -2.859375 8.03125 -2.234375 C 8.078125 -1.734375 8.09375 -1.0625 8.0625 -0.515625 C 8.03125 -0.21875 8.25 -0.03125 8.484375 0 C 8.984375 0.046875 9.9375 0.0625 10.375 0.0625 C 10.84375 0.0625 11.84375 0.046875 12.34375 0 C 12.625 -0.015625 12.8125 -0.234375 12.75 -0.53125 C 12.046875 -4.625 10.53125 -9.109375 9.34375 -11.625 C 9.28125 -11.796875 9.125 -11.875 8.9375 -11.90625 C 8.265625 -11.984375 7.0625 -11.984375 6.4375 -11.984375 C 5.78125 -11.984375 4.609375 -11.984375 3.984375 -11.90625 C 3.796875 -11.875 3.640625 -11.796875 3.578125 -11.625 C 2.375 -9.109375 0.84375 -4.625 0.15625 -0.546875 C 0.078125 -0.25 0.265625 -0.03125 0.578125 0 C 1.03125 0.03125 1.890625 0.0625 2.359375 0.0625 Z M 6.296875 -4.75 C 5.765625 -4.765625 5.5 -5.015625 5.609375 -5.4375 C 5.734375 -6.28125 5.953125 -7.328125 6.15625 -8.1875 C 6.328125 -8.734375 6.5625 -8.734375 6.71875 -8.1875 C 6.9375 -7.328125 7.1875 -6.28125 7.28125 -5.4375 C 7.40625 -5.015625 7.140625 -4.765625 6.625 -4.75 Z M 6.296875 -4.75 "/></g></g></g><g fill="#000000" fill-opacity="1"><g transform="translate(51.408788, 46.258217)"><g><path d="M 4.71875 0.140625 C 8.609375 0.140625 11.359375 -1.015625 11.34375 -4.796875 C 11.34375 -7.28125 11.078125 -9.828125 10.875 -11.46875 C 10.84375 -11.71875 10.65625 -11.90625 10.375 -11.90625 C 9.578125 -11.96875 7.234375 -11.984375 6.140625 -11.984375 C 5.046875 -11.984375 3.125 -11.984375 2.0625 -11.90625 C 1.78125 -11.890625 1.59375 -11.703125 1.5625 -11.4375 C 1.515625 -10.46875 1.46875 -9.171875 1.453125 -8.203125 C 1.453125 -7.78125 1.75 -7.59375 2.109375 -7.828125 C 3 -8.328125 4.421875 -8.578125 5.703125 -8.578125 C 6.484375 -8.578125 6.859375 -8.234375 6.890625 -7.671875 C 6.90625 -7.046875 6.90625 -6.296875 6.890625 -5.671875 C 6.84375 -4.171875 5.734375 -3.4375 4.203125 -3.4375 C 2.984375 -3.4375 1.953125 -3.953125 1.09375 -4.796875 C 0.796875 -5.125 0.390625 -5 0.359375 -4.46875 C 0.3125 -3.40625 0.265625 -2.0625 0.25 -1 C 0.25 -0.75 0.40625 -0.546875 0.609375 -0.46875 C 1.671875 -0.125 3.28125 0.140625 4.71875 0.140625 Z M 4.71875 0.140625 "/></g></g></g><g fill="#000000" fill-opacity="1"><g transform="translate(63.078598, 46.258217)"><g><path d="M 2.359375 0.0625 C 2.890625 0.0625 3.890625 0.046875 4.40625 0 C 4.640625 -0.03125 4.859375 -0.21875 4.84375 -0.5 C 4.796875 -1.078125 4.8125 -1.75 4.890625 -2.234375 C 4.984375 -2.828125 5.53125 -3.078125 6.125 -3.09375 L 6.765625 -3.09375 C 7.390625 -3.078125 7.921875 -2.859375 8.03125 -2.234375 C 8.078125 -1.734375 8.09375 -1.0625 8.0625 -0.515625 C 8.03125 -0.21875 8.25 -0.03125 8.484375 0 C 8.984375 0.046875 9.9375 0.0625 10.375 0.0625 C 10.84375 0.0625 11.84375 0.046875 12.34375 0 C 12.625 -0.015625 12.8125 -0.234375 12.75 -0.53125 C 12.046875 -4.625 10.53125 -9.109375 9.34375 -11.625 C 9.28125 -11.796875 9.125 -11.875 8.9375 -11.90625 C 8.265625 -11.984375 7.0625 -11.984375 6.4375 -11.984375 C 5.78125 -11.984375 4.609375 -11.984375 3.984375 -11.90625 C 3.796875 -11.875 3.640625 -11.796875 3.578125 -11.625 C 2.375 -9.109375 0.84375 -4.625 0.15625 -0.546875 C 0.078125 -0.25 0.265625 -0.03125 0.578125 0 C 1.03125 0.03125 1.890625 0.0625 2.359375 0.0625 Z M 6.296875 -4.75 C 5.765625 -4.765625 5.5 -5.015625 5.609375 -5.4375 C 5.734375 -6.28125 5.953125 -7.328125 6.15625 -8.1875 C 6.328125 -8.734375 6.5625 -8.734375 6.71875 -8.1875 C 6.9375 -7.328125 7.1875 -6.28125 7.28125 -5.4375 C 7.40625 -5.015625 7.140625 -4.765625 6.625 -4.75 Z M 6.296875 -4.75 "/></g></g></g><g fill="#000000" fill-opacity="1"><g transform="translate(75.973223, 46.258217)"><g><path d="M 6.3125 0.0625 C 6.9375 0.0625 8.171875 0.0625 8.828125 0 C 9.03125 -0.03125 9.203125 -0.15625 9.3125 -0.34375 C 10.484375 -2.859375 11.890625 -7.265625 12.484375 -11.390625 C 12.546875 -11.671875 12.375 -11.890625 12.078125 -11.90625 C 11.609375 -11.96875 10.640625 -11.984375 10.1875 -11.984375 C 9.765625 -11.984375 8.6875 -11.9375 8.21875 -11.90625 C 7.96875 -11.890625 7.78125 -11.703125 7.78125 -11.46875 C 7.671875 -8.84375 7.203125 -5.515625 6.625 -3.953125 C 6.4375 -3.453125 6.234375 -3.453125 6.0625 -3.953125 C 5.484375 -5.53125 5.015625 -8.84375 4.90625 -11.453125 C 4.90625 -11.71875 4.703125 -11.890625 4.453125 -11.90625 C 3.953125 -11.9375 2.859375 -11.984375 2.359375 -11.984375 C 1.890625 -11.984375 1.078125 -11.9375 0.609375 -11.90625 C 0.3125 -11.875 0.125 -11.65625 0.171875 -11.390625 C 0.78125 -7.25 2.21875 -2.859375 3.375 -0.34375 C 3.46875 -0.140625 3.625 -0.015625 3.84375 0 C 4.484375 0.0625 5.703125 0.0625 6.3125 0.0625 Z M 6.3125 0.0625 "/></g></g></g><g fill="#000000" fill-opacity="1"><g transform="translate(88.646699, 46.258217)"><g><path d="M 2.359375 0.0625 C 2.890625 0.0625 3.890625 0.046875 4.40625 0 C 4.640625 -0.03125 4.859375 -0.21875 4.84375 -0.5 C 4.796875 -1.078125 4.8125 -1.75 4.890625 -2.234375 C 4.984375 -2.828125 5.53125 -3.078125 6.125 -3.09375 L 6.765625 -3.09375 C 7.390625 -3.078125 7.921875 -2.859375 8.03125 -2.234375 C 8.078125 -1.734375 8.09375 -1.0625 8.0625 -0.515625 C 8.03125 -0.21875 8.25 -0.03125 8.484375 0 C 8.984375 0.046875 9.9375 0.0625 10.375 0.0625 C 10.84375 0.0625 11.84375 0.046875 12.34375 0 C 12.625 -0.015625 12.8125 -0.234375 12.75 -0.53125 C 12.046875 -4.625 10.53125 -9.109375 9.34375 -11.625 C 9.28125 -11.796875 9.125 -11.875 8.9375 -11.90625 C 8.265625 -11.984375 7.0625 -11.984375 6.4375 -11.984375 C 5.78125 -11.984375 4.609375 -11.984375 3.984375 -11.90625 C 3.796875 -11.875 3.640625 -11.796875 3.578125 -11.625 C 2.375 -9.109375 0.84375 -4.625 0.15625 -0.546875 C 0.078125 -0.25 0.265625 -0.03125 0.578125 0 C 1.03125 0.03125 1.890625 0.0625 2.359375 0.0625 Z M 6.296875 -4.75 C 5.765625 -4.765625 5.5 -5.015625 5.609375 -5.4375 C 5.734375 -6.28125 5.953125 -7.328125 6.15625 -8.1875 C 6.328125 -8.734375 6.5625 -8.734375 6.71875 -8.1875 C 6.9375 -7.328125 7.1875 -6.28125 7.28125 -5.4375 C 7.40625 -5.015625 7.140625 -4.765625 6.625 -4.75 Z M 6.296875 -4.75 "/></g></g></g></svg>