<svg xmlns="http://www.w3.org/2000/svg" xmlns:xlink="http://www.w3.org/1999/xlink" width="150" zoomAndPan="magnify" viewBox="0 0 112.5 56.249996" height="75" preserveAspectRatio="xMidYMid meet" version="1.0"><defs><g/><clipPath id="c07e66785e"><path d="M 6.042969 28 L 22 28 L 22 38 L 6.042969 38 Z M 6.042969 28 " clip-rule="nonzero"/></clipPath><clipPath id="b2cb6d936b"><path d="M 6.042969 17 L 23 17 L 23 27 L 6.042969 27 Z M 6.042969 17 " clip-rule="nonzero"/></clipPath><clipPath id="10d2154081"><path d="M 23 13 L 51.773438 13 L 51.773438 49.390625 L 23 49.390625 Z M 23 13 " clip-rule="nonzero"/></clipPath><clipPath id="1d6a88177e"><path d="M 6.042969 5.839844 L 38 5.839844 L 38 16 L 6.042969 16 Z M 6.042969 5.839844 " clip-rule="nonzero"/></clipPath></defs><g clip-path="url(#c07e66785e)"><path fill="#000000" d="M 21.40625 37.753906 L 21.40625 35.460938 C 21.40625 35.4375 21.40625 35.410156 21.40625 35.382812 C 21.40625 35.351562 21.40625 35.320312 21.40625 35.292969 L 21.40625 28.222656 L 7.574219 28.222656 C 6.730469 28.222656 6.042969 28.914062 6.042969 29.761719 L 6.042969 37.445312 C 6.042969 37.617188 6.183594 37.753906 6.351562 37.753906 Z M 15.007812 31.402344 C 15.875 31.402344 16.574219 32.105469 16.574219 32.972656 C 16.574219 33.84375 15.875 34.546875 15.007812 34.546875 C 14.144531 34.546875 13.441406 33.84375 13.441406 32.972656 C 13.441406 32.105469 14.144531 31.402344 15.007812 31.402344 Z M 10.464844 31.402344 C 11.328125 31.402344 12.03125 32.105469 12.03125 32.972656 C 12.03125 33.84375 11.328125 34.546875 10.464844 34.546875 C 9.601562 34.546875 8.898438 33.84375 8.898438 32.972656 C 8.898438 32.105469 9.601562 31.402344 10.464844 31.402344 Z M 10.464844 31.402344 " fill-opacity="1" fill-rule="nonzero"/></g><g clip-path="url(#b2cb6d936b)"><path fill="#000000" d="M 7.574219 17.035156 C 6.730469 17.035156 6.042969 17.722656 6.042969 18.574219 L 6.042969 26.257812 C 6.042969 26.425781 6.183594 26.566406 6.351562 26.566406 L 21.40625 26.566406 L 21.40625 19.972656 C 21.40625 19.949219 21.40625 19.921875 21.40625 19.894531 C 21.40625 19.863281 21.40625 19.832031 21.40625 19.804688 C 21.40625 18.847656 21.664062 17.90625 22.152344 17.035156 Z M 10.464844 23.359375 C 9.601562 23.359375 8.898438 22.652344 8.898438 21.785156 C 8.898438 20.917969 9.601562 20.210938 10.464844 20.210938 C 11.328125 20.210938 12.03125 20.917969 12.03125 21.785156 C 12.03125 22.652344 11.328125 23.359375 10.464844 23.359375 Z M 15.007812 23.359375 C 14.144531 23.359375 13.441406 22.652344 13.441406 21.785156 C 13.441406 20.917969 14.144531 20.210938 15.007812 20.210938 C 15.875 20.210938 16.574219 20.917969 16.574219 21.785156 C 16.574219 22.652344 15.875 23.359375 15.007812 23.359375 Z M 15.007812 23.359375 " fill-opacity="1" fill-rule="nonzero"/></g><g clip-path="url(#10d2154081)"><path fill="#000000" d="M 25.136719 46.078125 C 25.894531 46.761719 26.941406 47.363281 28.257812 47.867188 C 30.8125 48.847656 34.1875 49.386719 37.757812 49.386719 C 41.328125 49.386719 44.703125 48.847656 47.257812 47.867188 C 48.574219 47.363281 49.621094 46.761719 50.378906 46.078125 C 51.53125 45.035156 51.773438 43.984375 51.773438 43.289062 L 51.773438 35.460938 C 51.773438 35.441406 51.773438 35.417969 51.769531 35.394531 C 51.773438 35.359375 51.773438 35.324219 51.773438 35.292969 L 51.773438 19.972656 C 51.773438 19.949219 51.773438 19.929688 51.769531 19.90625 C 51.773438 19.871094 51.773438 19.835938 51.773438 19.804688 C 51.773438 19.109375 51.53125 18.0625 50.378906 17.015625 C 49.621094 16.332031 48.574219 15.730469 47.257812 15.226562 C 44.703125 14.246094 41.328125 13.707031 37.757812 13.707031 C 34.1875 13.707031 30.8125 14.246094 28.257812 15.226562 C 26.941406 15.730469 25.894531 16.332031 25.136719 17.015625 C 23.984375 18.0625 23.742188 19.109375 23.742188 19.804688 C 23.742188 19.835938 23.742188 19.871094 23.746094 19.90625 C 23.742188 19.929688 23.742188 19.949219 23.742188 19.972656 L 23.742188 35.292969 C 23.742188 35.324219 23.742188 35.359375 23.746094 35.394531 C 23.742188 35.417969 23.742188 35.441406 23.742188 35.460938 L 23.742188 43.289062 C 23.742188 43.984375 23.984375 45.035156 25.136719 46.078125 Z M 29.089844 17.417969 C 31.386719 16.539062 34.464844 16.054688 37.757812 16.054688 C 41.050781 16.054688 44.128906 16.539062 46.425781 17.417969 C 48.253906 18.121094 49.4375 19.054688 49.4375 19.804688 C 49.4375 20.550781 48.253906 21.488281 46.425781 22.1875 C 44.128906 23.066406 41.050781 23.554688 37.757812 23.554688 C 34.464844 23.554688 31.386719 23.066406 29.089844 22.1875 C 27.261719 21.488281 26.078125 20.550781 26.078125 19.804688 C 26.078125 19.054688 27.261719 18.121094 29.089844 17.417969 Z M 26.078125 27.464844 L 26.078125 23.304688 C 26.691406 23.699219 27.421875 24.0625 28.257812 24.382812 C 30.8125 25.359375 34.1875 25.898438 37.757812 25.898438 C 41.328125 25.898438 44.703125 25.359375 47.257812 24.382812 C 48.09375 24.0625 48.824219 23.699219 49.4375 23.304688 L 49.4375 27.800781 C 49.4375 28.550781 48.253906 29.484375 46.425781 30.1875 C 44.128906 31.066406 41.050781 31.550781 37.757812 31.550781 C 34.464844 31.550781 31.386719 31.066406 29.089844 30.1875 C 27.261719 29.484375 26.078125 28.550781 26.078125 27.800781 Z M 26.078125 31.304688 C 26.691406 31.699219 27.421875 32.058594 28.257812 32.378906 C 30.8125 33.359375 34.1875 33.898438 37.757812 33.898438 C 41.328125 33.898438 44.703125 33.359375 47.257812 32.378906 C 48.09375 32.058594 48.824219 31.699219 49.4375 31.304688 L 49.4375 35.292969 C 49.4375 36.039062 48.253906 36.976562 46.425781 37.675781 C 44.128906 38.554688 41.050781 39.042969 37.757812 39.042969 C 34.464844 39.042969 31.386719 38.554688 29.089844 37.675781 C 27.261719 36.976562 26.078125 36.039062 26.078125 35.292969 Z M 26.078125 38.792969 C 26.691406 39.1875 27.421875 39.550781 28.257812 39.871094 C 30.8125 40.847656 34.1875 41.386719 37.757812 41.386719 C 41.328125 41.386719 44.703125 40.847656 47.257812 39.871094 C 48.09375 39.550781 48.824219 39.1875 49.4375 38.792969 L 49.4375 43.289062 C 49.4375 44.039062 48.253906 44.972656 46.425781 45.675781 C 44.128906 46.554688 41.050781 47.039062 37.757812 47.039062 C 34.464844 47.039062 31.386719 46.554688 29.089844 45.675781 C 27.261719 44.972656 26.078125 44.039062 26.078125 43.289062 Z M 26.078125 38.792969 " fill-opacity="1" fill-rule="nonzero"/></g><g clip-path="url(#1d6a88177e)"><path fill="#000000" d="M 24.496094 13.710938 C 24.324219 13.710938 24.1875 13.574219 24.1875 13.402344 L 24.1875 8.34375 C 24.1875 8.175781 24.324219 8.035156 24.496094 8.035156 L 35.671875 8.035156 C 35.839844 8.035156 35.976562 8.175781 35.976562 8.34375 L 35.976562 11.402344 C 36.566406 11.375 37.160156 11.359375 37.757812 11.359375 L 37.757812 7.382812 C 37.757812 6.535156 37.074219 5.847656 36.226562 5.847656 L 7.574219 5.847656 C 6.730469 5.847656 6.042969 6.535156 6.042969 7.382812 L 6.042969 15.066406 C 6.042969 15.238281 6.183594 15.375 6.351562 15.375 L 23.460938 15.375 C 23.5 15.34375 23.535156 15.308594 23.574219 15.273438 C 24.210938 14.695312 24.988281 14.175781 25.894531 13.710938 Z M 10.464844 12.167969 C 9.601562 12.167969 8.898438 11.464844 8.898438 10.597656 C 8.898438 9.726562 9.601562 9.023438 10.464844 9.023438 C 11.328125 9.023438 12.03125 9.726562 12.03125 10.597656 C 12.03125 11.464844 11.328125 12.167969 10.464844 12.167969 Z M 15.007812 12.167969 C 14.144531 12.167969 13.441406 11.464844 13.441406 10.597656 C 13.441406 9.726562 14.144531 9.023438 15.007812 9.023438 C 15.875 9.023438 16.574219 9.726562 16.574219 10.597656 C 16.574219 11.464844 15.875 12.167969 15.007812 12.167969 Z M 15.007812 12.167969 " fill-opacity="1" fill-rule="nonzero"/></g><g fill="#000000" fill-opacity="1"><g transform="translate(57.110306, 22.329716)"><g><path d="M 6.6875 -10.171875 C 5.71875 -10.171875 4.96875 -9.804688 4.4375 -9.078125 C 3.90625 -8.359375 3.640625 -7.347656 3.640625 -6.046875 C 3.640625 -3.335938 4.65625 -1.984375 6.6875 -1.984375 C 7.539062 -1.984375 8.570312 -2.191406 9.78125 -2.609375 L 9.78125 -0.453125 C 8.789062 -0.0351562 7.679688 0.171875 6.453125 0.171875 C 4.679688 0.171875 3.328125 -0.363281 2.390625 -1.4375 C 1.453125 -2.507812 0.984375 -4.050781 0.984375 -6.0625 C 0.984375 -7.320312 1.210938 -8.425781 1.671875 -9.375 C 2.140625 -10.320312 2.800781 -11.050781 3.65625 -11.5625 C 4.519531 -12.070312 5.53125 -12.328125 6.6875 -12.328125 C 7.863281 -12.328125 9.050781 -12.039062 10.25 -11.46875 L 9.40625 -9.375 C 8.957031 -9.59375 8.503906 -9.78125 8.046875 -9.9375 C 7.585938 -10.09375 7.132812 -10.171875 6.6875 -10.171875 Z M 6.6875 -10.171875 "/></g></g></g><g fill="#000000" fill-opacity="1"><g transform="translate(67.954692, 22.329716)"><g><path d="M 4.109375 -6.75 L 4.9375 -6.75 C 5.75 -6.75 6.347656 -6.882812 6.734375 -7.15625 C 7.117188 -7.425781 7.3125 -7.851562 7.3125 -8.4375 C 7.3125 -9.019531 7.113281 -9.429688 6.71875 -9.671875 C 6.320312 -9.910156 5.710938 -10.03125 4.890625 -10.03125 L 4.109375 -10.03125 Z M 4.109375 -4.65625 L 4.109375 0 L 1.53125 0 L 1.53125 -12.140625 L 5.0625 -12.140625 C 6.71875 -12.140625 7.941406 -11.835938 8.734375 -11.234375 C 9.523438 -10.640625 9.921875 -9.734375 9.921875 -8.515625 C 9.921875 -7.796875 9.722656 -7.15625 9.328125 -6.59375 C 8.929688 -6.039062 8.375 -5.609375 7.65625 -5.296875 C 9.488281 -2.566406 10.679688 -0.800781 11.234375 0 L 8.375 0 L 5.46875 -4.65625 Z M 4.109375 -4.65625 "/></g></g></g><g fill="#000000" fill-opacity="1"><g transform="translate(79.189639, 22.329716)"><g><path d="M 11.421875 -12.140625 L 11.421875 -4.28125 C 11.421875 -3.382812 11.21875 -2.597656 10.8125 -1.921875 C 10.414062 -1.242188 9.835938 -0.722656 9.078125 -0.359375 C 8.316406 -0.00390625 7.414062 0.171875 6.375 0.171875 C 4.8125 0.171875 3.597656 -0.226562 2.734375 -1.03125 C 1.878906 -1.832031 1.453125 -2.929688 1.453125 -4.328125 L 1.453125 -12.140625 L 4.015625 -12.140625 L 4.015625 -4.703125 C 4.015625 -3.773438 4.203125 -3.09375 4.578125 -2.65625 C 4.953125 -2.21875 5.578125 -2 6.453125 -2 C 7.285156 -2 7.890625 -2.21875 8.265625 -2.65625 C 8.648438 -3.09375 8.84375 -3.785156 8.84375 -4.734375 L 8.84375 -12.140625 Z M 11.421875 -12.140625 "/></g></g></g><g fill="#000000" fill-opacity="1"><g transform="translate(92.053322, 22.329716)"><g><path d="M 11.609375 -6.1875 C 11.609375 -4.1875 11.035156 -2.65625 9.890625 -1.59375 C 8.753906 -0.53125 7.113281 0 4.96875 0 L 1.53125 0 L 1.53125 -12.140625 L 5.34375 -12.140625 C 7.320312 -12.140625 8.859375 -11.613281 9.953125 -10.5625 C 11.054688 -9.519531 11.609375 -8.0625 11.609375 -6.1875 Z M 8.9375 -6.125 C 8.9375 -8.726562 7.78125 -10.03125 5.46875 -10.03125 L 4.109375 -10.03125 L 4.109375 -2.125 L 5.203125 -2.125 C 7.691406 -2.125 8.9375 -3.457031 8.9375 -6.125 Z M 8.9375 -6.125 "/></g></g></g><g fill="#000000" fill-opacity="1"><g transform="translate(55.803866, 45.626226)"><g><path d="M 4.71875 0.140625 C 8.609375 0.140625 11.359375 -1.015625 11.34375 -4.796875 C 11.34375 -7.28125 11.078125 -9.828125 10.875 -11.46875 C 10.84375 -11.71875 10.65625 -11.90625 10.375 -11.90625 C 9.578125 -11.96875 7.234375 -11.984375 6.140625 -11.984375 C 5.046875 -11.984375 3.125 -11.984375 2.0625 -11.90625 C 1.78125 -11.890625 1.59375 -11.703125 1.5625 -11.4375 C 1.515625 -10.46875 1.46875 -9.171875 1.453125 -8.203125 C 1.453125 -7.78125 1.75 -7.59375 2.109375 -7.828125 C 3 -8.328125 4.421875 -8.578125 5.703125 -8.578125 C 6.484375 -8.578125 6.859375 -8.234375 6.890625 -7.671875 C 6.90625 -7.046875 6.90625 -6.296875 6.890625 -5.671875 C 6.84375 -4.171875 5.734375 -3.4375 4.203125 -3.4375 C 2.984375 -3.4375 1.953125 -3.953125 1.09375 -4.796875 C 0.796875 -5.125 0.390625 -5 0.359375 -4.46875 C 0.3125 -3.40625 0.265625 -2.0625 0.25 -1 C 0.25 -0.75 0.40625 -0.546875 0.609375 -0.46875 C 1.671875 -0.125 3.28125 0.140625 4.71875 0.140625 Z M 4.71875 0.140625 "/></g></g></g><g fill="#000000" fill-opacity="1"><g transform="translate(67.478621, 45.626226)"><g><path d="M 2.359375 0.0625 C 2.890625 0.0625 3.890625 0.046875 4.40625 0 C 4.640625 -0.03125 4.859375 -0.21875 4.84375 -0.5 C 4.796875 -1.078125 4.8125 -1.75 4.890625 -2.234375 C 4.984375 -2.828125 5.53125 -3.078125 6.125 -3.09375 L 6.765625 -3.09375 C 7.390625 -3.078125 7.921875 -2.859375 8.03125 -2.234375 C 8.078125 -1.734375 8.09375 -1.0625 8.0625 -0.515625 C 8.03125 -0.21875 8.25 -0.03125 8.484375 0 C 8.984375 0.046875 9.9375 0.0625 10.375 0.0625 C 10.84375 0.0625 11.84375 0.046875 12.34375 0 C 12.625 -0.015625 12.8125 -0.234375 12.75 -0.53125 C 12.046875 -4.625 10.53125 -9.109375 9.34375 -11.625 C 9.28125 -11.796875 9.125 -11.875 8.9375 -11.90625 C 8.265625 -11.984375 7.0625 -11.984375 6.4375 -11.984375 C 5.78125 -11.984375 4.609375 -11.984375 3.984375 -11.90625 C 3.796875 -11.875 3.640625 -11.796875 3.578125 -11.625 C 2.375 -9.109375 0.84375 -4.625 0.15625 -0.546875 C 0.078125 -0.25 0.265625 -0.03125 0.578125 0 C 1.03125 0.03125 1.890625 0.0625 2.359375 0.0625 Z M 6.296875 -4.75 C 5.765625 -4.765625 5.5 -5.015625 5.609375 -5.4375 C 5.734375 -6.28125 5.953125 -7.328125 6.15625 -8.1875 C 6.328125 -8.734375 6.5625 -8.734375 6.71875 -8.1875 C 6.9375 -7.328125 7.1875 -6.28125 7.28125 -5.4375 C 7.40625 -5.015625 7.140625 -4.765625 6.625 -4.75 Z M 6.296875 -4.75 "/></g></g></g><g fill="#000000" fill-opacity="1"><g transform="translate(80.378713, 45.626226)"><g><path d="M 6.3125 0.0625 C 6.9375 0.0625 8.171875 0.0625 8.828125 0 C 9.03125 -0.03125 9.203125 -0.15625 9.3125 -0.34375 C 10.484375 -2.859375 11.890625 -7.265625 12.484375 -11.390625 C 12.546875 -11.671875 12.375 -11.890625 12.078125 -11.90625 C 11.609375 -11.96875 10.640625 -11.984375 10.1875 -11.984375 C 9.765625 -11.984375 8.6875 -11.9375 8.21875 -11.90625 C 7.96875 -11.890625 7.78125 -11.703125 7.78125 -11.46875 C 7.671875 -8.84375 7.203125 -5.515625 6.625 -3.953125 C 6.4375 -3.453125 6.234375 -3.453125 6.0625 -3.953125 C 5.484375 -5.53125 5.015625 -8.84375 4.90625 -11.453125 C 4.90625 -11.71875 4.703125 -11.890625 4.453125 -11.90625 C 3.953125 -11.9375 2.859375 -11.984375 2.359375 -11.984375 C 1.890625 -11.984375 1.078125 -11.9375 0.609375 -11.90625 C 0.3125 -11.875 0.125 -11.65625 0.171875 -11.390625 C 0.78125 -7.25 2.21875 -2.859375 3.375 -0.34375 C 3.46875 -0.140625 3.625 -0.015625 3.84375 0 C 4.484375 0.0625 5.703125 0.0625 6.3125 0.0625 Z M 6.3125 0.0625 "/></g></g></g><g fill="#000000" fill-opacity="1"><g transform="translate(93.057562, 45.626226)"><g><path d="M 2.359375 0.0625 C 2.890625 0.0625 3.890625 0.046875 4.40625 0 C 4.640625 -0.03125 4.859375 -0.21875 4.84375 -0.5 C 4.796875 -1.078125 4.8125 -1.75 4.890625 -2.234375 C 4.984375 -2.828125 5.53125 -3.078125 6.125 -3.09375 L 6.765625 -3.09375 C 7.390625 -3.078125 7.921875 -2.859375 8.03125 -2.234375 C 8.078125 -1.734375 8.09375 -1.0625 8.0625 -0.515625 C 8.03125 -0.21875 8.25 -0.03125 8.484375 0 C 8.984375 0.046875 9.9375 0.0625 10.375 0.0625 C 10.84375 0.0625 11.84375 0.046875 12.34375 0 C 12.625 -0.015625 12.8125 -0.234375 12.75 -0.53125 C 12.046875 -4.625 10.53125 -9.109375 9.34375 -11.625 C 9.28125 -11.796875 9.125 -11.875 8.9375 -11.90625 C 8.265625 -11.984375 7.0625 -11.984375 6.4375 -11.984375 C 5.78125 -11.984375 4.609375 -11.984375 3.984375 -11.90625 C 3.796875 -11.875 3.640625 -11.796875 3.578125 -11.625 C 2.375 -9.109375 0.84375 -4.625 0.15625 -0.546875 C 0.078125 -0.25 0.265625 -0.03125 0.578125 0 C 1.03125 0.03125 1.890625 0.0625 2.359375 0.0625 Z M 6.296875 -4.75 C 5.765625 -4.765625 5.5 -5.015625 5.609375 -5.4375 C 5.734375 -6.28125 5.953125 -7.328125 6.15625 -8.1875 C 6.328125 -8.734375 6.5625 -8.734375 6.71875 -8.1875 C 6.9375 -7.328125 7.1875 -6.28125 7.28125 -5.4375 C 7.40625 -5.015625 7.140625 -4.765625 6.625 -4.75 Z M 6.296875 -4.75 "/></g></g></g></svg>