<!DOCTYPE svg PUBLIC "-//W3C//DTD SVG 1.1//EN" "http://www.w3.org/Graphics/SVG/1.1/DTD/svg11.dtd">
<!-- Uploaded to: SVG Repo, www.svgrepo.com, Transformed by: SVG Repo Mixer Tools -->
<svg version="1.1" id="Icons" xmlns="http://www.w3.org/2000/svg" xmlns:xlink="http://www.w3.org/1999/xlink" viewBox="0 0 32 32" xml:space="preserve" width="800px" height="800px" fill="#000000">
<g id="SVGRepo_bgCarrier" stroke-width="0"/>
<g id="SVGRepo_tracerCarrier" stroke-linecap="round" stroke-linejoin="round"/>
<g id="SVGRepo_iconCarrier"> <style type="text/css"> .st0{fill:none;stroke:#ffffff;stroke-width:3.2;stroke-linecap:round;stroke-linejoin:round;stroke-miterlimit:10;} .st1{fill:none;stroke:#ffffff;stroke-width:3.2;stroke-linejoin:round;stroke-miterlimit:10;} </style> <path class="st0" d="M22.7,22.9c-2.2-0.5-3.7-2.5-3.7-4.7c1.8-1,3-3,3-5.2v0c0-1.1,0.9-2,2-2h0l0-2.3c0-2.8-2.1-5.4-4.9-5.7 c-2-0.2-3.8,0.6-4.9,2.1c-0.8-0.2-1.6-0.1-2.6,0.6c-1,0.8-1.6,2-1.6,3.3l0,1v1.5v1.3c0,2.2,1.2,4.3,3,5.4v0c0,2.3-1.6,4.2-3.8,4.8 c-2.6,0.7-4.5,2.8-5.1,5.4C4.1,28.7,4.3,29,4.7,29l22.7,0c0.4,0,0.6-0.3,0.5-0.7C27.3,25.7,25.3,23.6,22.7,22.9z"/> </g>
</svg>